<svg xmlns="http://www.w3.org/2000/svg" xmlns:xlink="http://www.w3.org/1999/xlink" fill="none" version="1.1" width="60" height="56.38554763793945" viewBox="0 0 60 56.38554763793945"><defs><clipPath id="master_svg0_190_10674"><rect x="0" y="0" width="60" height="56.38554763793945" rx="0"/></clipPath></defs><g clip-path="url(#master_svg0_190_10674)"><g><path d="M5.4317417578125,0.0241532L54.3867517578125,0C57.3885517578125,0.202283,59.7276517578125,2.47872,60.0030517578125,5.46465L60.0030517578125,41.3864C59.7942517578125,44.2154,57.5610517578125,46.5371,54.7317517578125,46.8451L36.2094517578125,46.8783C36.1337517578125,46.9235,36.0793517578125,47.1168,36.0520517578125,47.2074C35.1654517578125,49.9397,38.9146517578125,52.4244,40.7272517578125,53.8585C41.6381517578125,54.0125,43.1813517578125,53.5385,43.8471517578125,54.2963C44.5673517578125,55.1115,43.9167517578125,56.3463,42.8787517578125,56.3825L17.1969517578125,56.3825C16.1226517578125,56.4067,15.4387517578125,55.2715,16.0893517578125,54.3657C16.7399517578125,53.46,18.3528517578125,54.0216,19.2788517578125,53.8585C21.2457517578125,52.1799,25.0373517578125,49.9487,23.7966517578125,46.8752L5.2743817578125,46.842C2.4541317578125,46.516,0.2118477578125,44.2184,0.0030517578125,41.3834L0.0030517578125,5.46767C0.2753937578125,2.56929,2.5025517578125,0.28078,5.4317417578125,0.0241532ZM57.4854517578125,36.4743L57.4854517578125,5.39823C57.4854517578125,4.0849,55.6939517578125,2.51193,54.3807517578125,2.51193L5.7555217578125,2.51193C4.3393417578125,2.45758,2.5146517578125,4.04867,2.5146517578125,5.46767L2.5146517578125,36.4743L57.4854517578125,36.4743ZM57.4854517578125,38.9802L2.5146517578125,38.9802L2.5146517578125,41.4498C2.5146517578125,42.6907,4.2122517578125,44.3301,5.4801517578125,44.3361L54.3837517578125,44.3361C55.7605517578125,44.3694,57.4854517578125,42.736,57.4854517578125,41.3804L57.4854517578125,38.9802ZM33.5586517578125,46.8451L26.4444517578125,46.8451C27.1374517578125,49.7102,25.2854517578125,52.0742,23.3064517578125,53.8736L36.6996517578125,53.8736C34.7024517578125,52.1074,32.8444517578125,49.6861,33.5616517578125,46.8451L33.5586517578125,46.8451Z" fill="#000000" fill-opacity="1" style="mix-blend-mode:passthrough"/></g><g><path d="M30.139238818359374,14.96891501953125L43.15113881835937,14.96891501953125C44.049838818359376,14.96891501953125,45.30563881835937,16.30334501953125,45.278438818359376,17.23024501953125C45.10293881835938,20.47284501953125,45.51743881835937,23.96894501953125,45.278438818359376,27.18134501953125C45.04543881835937,30.32124501953125,42.47023881835938,32.95094501953125,39.317138818359375,33.20754501953125C34.78113881835937,32.815045019531254,29.052838818359376,34.73824501953125,26.335538818359375,29.93484501953125C24.550158818359375,26.77674501953125,25.881638818359377,20.91054501953125,25.473138818359374,17.30874501953125C25.600138818359376,16.089045019531248,26.429338818359376,15.21044501953125,27.630638818359373,14.99910501953125C27.715338818359378,13.12723501953125,27.657838818359373,11.527085019531249,26.371838818359375,10.059785019531251C23.581828818359376,6.87458501953125,18.243918818359376,8.21206501953125,17.348218818359374,12.33319501953125C17.063768818359375,13.640485019531251,17.378478818359376,15.03835501953125,17.233228818359375,16.32454501953125C17.060748818359375,17.85224501953125,14.863853818359376,17.87334501953125,14.718603518359375,16.258045019531252C14.585458918359375,14.77568501953125,14.652030668359375,12.36339501953125,15.139220818359375,10.965525019531249C17.302828818359373,4.75212501953125,25.869538818359374,3.93091501953125,29.149738818359374,9.65823501953125C29.521938818359374,10.30735501953125,30.139238818359374,11.844095019531249,30.139238818359374,12.568695019531251L30.139238818359374,14.96891501953125ZM42.766838818359375,17.471745019531248L27.978638818359375,17.471745019531248L27.978638818359375,27.11194501953125C27.978638818359375,28.82374501953125,29.909238818359377,30.56884501953125,31.567538818359374,30.69864501953125C34.012538818359374,30.89184501953125,36.70573881835938,30.54774501953125,39.17793881835938,30.69864501953125C40.73033881835937,30.70474501953125,42.766838818359375,28.78154501953125,42.766838818359375,27.25084501953125L42.766838818359375,17.471745019531248Z" fill="#000000" fill-opacity="1" style="mix-blend-mode:passthrough"/></g><g><ellipse cx="29.99692416191101" cy="41.682294845581055" rx="1.2588260173797607" ry="1.2559642791748047" fill="#000000" fill-opacity="1" style="mix-blend-mode:passthrough"/></g><g><ellipse cx="24.459352254867554" cy="41.67625451087952" rx="1.2558000087738037" ry="1.2529451847076416" fill="#000000" fill-opacity="1" style="mix-blend-mode:passthrough"/></g><g><ellipse cx="35.534608602523804" cy="41.67625451087952" rx="1.2558000087738037" ry="1.2529451847076416" fill="#000000" fill-opacity="1" style="mix-blend-mode:passthrough"/></g><g><path d="M36.63908451171875,25.7653960546875C36.56040451171875,25.8891860546875,36.66631451171875,27.6553860546875,36.62697451171875,28.0176760546875C36.50896451171875,29.1256560546875,35.00200451171875,29.5242560546875,34.36350451171875,28.6033960546875C33.85816451171875,27.8727660546875,34.25759451171875,26.6047160546875,34.08208451171875,25.7533260546875C32.28160551171875,24.9532460546875,31.41313551171875,23.0058960546875,32.19990151171875,21.1612060546875C33.18941451171875,18.8334420546875,36.38186451171875,18.3383030546875,38.02499451171875,20.2886660546875C39.58037451171875,22.1333660546875,38.85110451171875,24.8838060546875,36.63908451171875,25.7653960546875ZM36.34858451171875,22.5439760546875C36.34858451171875,22.0126060546875,35.91586451171875,21.5808660546875,35.38328451171875,21.5808660546875C34.85069451171875,21.5808660546875,34.417974511718754,22.0126060546875,34.417974511718754,22.5439760546875C34.417974511718754,23.0753460546875,34.85069451171875,23.507076054687502,35.38328451171875,23.507076054687502C35.91586451171875,23.507076054687502,36.34858451171875,23.0753460546875,36.34858451171875,22.5439760546875Z" fill="#000000" fill-opacity="1" style="mix-blend-mode:passthrough"/></g></g></svg>