<svg xmlns="http://www.w3.org/2000/svg" xmlns:xlink="http://www.w3.org/1999/xlink" fill="none" version="1.1" width="60.002593994140625" height="59.923095703125" viewBox="0 0 60.002593994140625 59.923095703125"><g><path d="M18.2066,1.94189C22.9901,5.07349,23.0347,9.07556,24.1604,14.1237C25.2861,19.1718,29.0873,21.7548,32.7004,25.0841C36.7153,28.78,40.7014,32.4888,44.6557,36.1146C45.7655,37.132,46.9677,38.0726,48.0583,39.1282C48.4219,39.4822,48.7854,39.8744,49.0341,40.1167C51.7766,42.7954,54.8731,45.2413,57.606,47.8691C61.5412,51.6576,60.5718,58.1758,55.1282,59.6395C51.0808,60.7279,49.033,58.5124,46.6158,55.8971C46.54,55.8152,46.4639,55.7328,46.3873,55.6501C39.5757,48.2932,32.8311,40.7545,26.0801,33.4232C24.441,31.6437,21.571,27.8329,19.4631,27.007C17.0172,26.0503,13.6911,26.3724,11.0443,25.9292C5.61987,25.0203,2.27466,21.0022,0.240112,16.222C-0.1362,15.3386,-0.190399,14.6211,0.976746,14.5701L8.14551,17.3094C9.75272,17.8547,11.6374,16.4325,12.5558,15.2015C12.6138,15.1233,12.677,14.9875,12.7468,14.8377C12.919,14.4682,13.1309,14.0134,13.4009,14.1268C13.4876,13.7939,13.5899,13.4493,13.6945,13.097C14.2363,11.2728,14.839,9.24301,13.6496,7.56714C12.3645,5.75903,7.11227,4.8374,5.04266,3.64478C3.55344,2.78381,5.79205,1.63257,6.54465,1.25952C10.3746,-0.631592,14.6446,-0.385986,18.2066,1.94824L18.2066,1.94189ZM39.8851,10.1661C39.9305,10.1766,39.976,10.1896,40.0218,10.2027C40.1721,10.2456,40.3242,10.2891,40.4782,10.2427C40.8226,10.1406,41.8973,9.18079,42.3948,8.91614C43.8904,8.11572,45.4976,8.03918,47.0698,8.6897C48.3741,9.22864,52.2518,13.0968,53.2595,14.3214C54.5893,15.9446,54.8731,18.1704,53.9515,20.0679C53.865,20.2453,53.5448,20.713,53.2219,21.1849L53.2219,21.1849C52.8309,21.7562,52.4359,22.3334,52.4464,22.4086C52.4527,22.4468,52.6058,22.7753,52.6217,22.788C52.7844,22.8965,54.5797,23.0654,55.007,23.1835C56.9619,23.7128,58.6807,25.5624,58.8657,27.6097C59.0315,29.4561,59.0921,32.5366,58.9741,34.3831C58.821,36.7173,57.3924,38.6689,55.1282,39.3291C54.2354,39.5906,53.285,39.5554,52.4655,39.9764L49.9845,37.6995L50.1917,36.8704C50.3448,36.7428,53.5593,36.3601,54.1237,36.2039C54.9433,35.9775,55.5364,35.3461,55.6353,34.4818C55.7884,33.1361,55.7852,29.5709,55.6225,28.2284C55.4036,26.4046,53.7493,26.2192,52.1475,26.0397C51.4162,25.9577,50.6958,25.877,50.128,25.6421L48.677,21.978C48.9077,21.4972,49.3033,20.993,49.7122,20.472C50.7108,19.1994,51.7882,17.8263,50.7339,16.4484C49.5189,14.8571,47.4046,13.4572,46.0844,11.9042C45.6252,11.5662,44.8503,11.5087,44.3113,11.649C43.5779,11.8403,41.0873,14.1173,40.7302,14.1268L36.9991,12.6249C36.4857,11.1324,36.8492,7.50977,34.77,7.25464C33.335,7.07922,29.7793,7.12073,28.2965,7.25464C27.4355,7.33118,26.8327,7.81592,26.5107,8.60034L26.0291,11.0973C25.7772,9.23816,25.1873,7.45239,24.5335,5.70483C25.3531,4.65247,26.7849,4.03381,28.1019,3.92542C29.6773,3.79785,34.432,3.73083,35.8064,4.09753C38.6382,4.85339,39.7097,7.48108,39.8851,10.1725L39.8851,10.1661ZM46.5103,34.5507C46.5651,34.6103,46.6129,34.6624,46.7353,34.6333L46.735,34.635L46.7413,34.6318C46.7393,34.6324,46.7373,34.6328,46.7353,34.6333C47.5288,30.7592,46.8909,26.71,44.8598,23.327C41.3361,17.4465,34.1737,14.3851,27.4897,16.2444C27.2983,16.493,29.301,18.7604,29.6295,19.057C31.5077,18.9166,33.2935,18.9963,35.0985,19.5544C40.5452,21.235,43.9606,26.4585,43.8649,32.1062C44.761,32.7854,45.5646,33.8091,46.4384,34.4819C46.4666,34.5031,46.489,34.5275,46.5103,34.5507ZM12.323,46.418C13.1298,47.3875,15.6459,49.8652,16.6313,50.6465C18.0661,51.7861,19.2882,50.8083,20.5067,49.8334C21.0783,49.3761,21.649,48.9194,22.2406,48.6821C22.7253,48.8352,23.1431,49.1382,23.6087,49.3295C24.0998,49.5304,25.5189,49.9291,25.825,50.1459C25.9111,50.2064,25.9844,50.2574,26.0067,50.3691C26.4915,51.954,26.1216,55.2355,28.3123,55.5383C29.7187,55.7329,33.6347,55.6564,35.0666,55.4396C36.9193,55.1621,36.6961,51.5745,37.1107,50.2161C37.1904,50.0247,37.6879,49.8525,37.8792,49.9036C38.0482,49.9481,40.1689,52.2474,40.2741,52.4674C40.1593,52.5599,40.07,52.5153,40.0158,52.7098C39.6427,54.0524,39.8627,54.9325,39.0432,56.2877C37.3828,59.0267,34.3924,58.9196,31.5173,58.8167L31.5172,58.8167C30.9411,58.7961,30.3696,58.7757,29.8144,58.7783C29.6292,58.7783,29.4502,58.803,29.2654,58.8285C29.0301,58.8609,28.7855,58.8947,28.5069,58.8804C26.0578,58.7592,24.0296,57.1328,23.4333,54.7603C23.3089,54.266,23.2579,53.1403,23.0793,52.7927C23.006,52.6555,22.7349,52.4834,22.601,52.4642C22.512,52.4515,21.9541,52.8541,21.4227,53.2375C21.0206,53.5277,20.6337,53.8068,20.4771,53.8865C18.9688,54.6614,17.0299,54.6646,15.5215,53.8865C14.4405,53.3285,10.7062,49.6453,9.81329,48.5833C8.37506,46.8677,8.02747,44.6801,9.01926,42.6327C9.27435,42.1066,10.3554,40.8309,10.4256,40.5057C10.4575,40.3527,10.247,39.9668,10.1003,39.9093C6.58609,39.702,4.22308,37.9226,4.00302,34.2872C3.8978,32.5717,3.80212,28.1868,4.30597,26.7008C4.36975,26.5094,4.49094,26.2511,4.58978,26.0757C4.60176,26.0545,4.60496,26.0298,4.60791,26.0071C4.61516,25.9512,4.62091,25.9069,4.75244,25.9546C4.9884,26.0406,5.54968,26.5094,5.8558,26.6688C6.11731,26.806,7.50131,27.3864,7.5332,27.5203C7.4758,27.7404,7.35779,27.8679,7.33548,28.1134C7.1824,29.6697,7.19516,32.9192,7.33548,34.485C7.50056,36.3375,9.22006,36.5268,10.8384,36.705C11.471,36.7746,12.0881,36.8425,12.5909,37.0074C12.7089,37.0808,13.3466,38.9176,13.4838,39.2461C13.5316,39.3591,13.616,39.5125,13.7099,39.6834C13.9605,40.139,14.2796,40.719,14.1566,40.9904C13.6081,41.7781,12.9799,42.537,12.4665,43.347C11.7617,44.46,11.3408,45.2317,12.323,46.4148L12.323,46.418ZM32.3719,43.7458C24.4665,44.288,17.9961,37.3616,19.141,29.4944C18.1492,28.9938,17.0267,28.8152,15.9233,28.7705C14.9379,34.8646,17.623,41.0448,22.7413,44.4346C26.3224,46.804,30.7232,47.5853,34.9199,46.6541L32.3719,43.7458ZM56.1041,49.5178C54.0854,47.9679,51.5088,48.3984,49.8218,50.1875C49.6847,50.3341,49.5061,50.7231,49.436,50.771C49.3833,50.8042,49.3031,50.7991,49.243,50.7953C49.2049,50.7929,49.1748,50.791,49.1649,50.7997C49.1521,50.8096,49.1647,50.8526,49.1803,50.9059C49.1996,50.9721,49.2237,51.0543,49.2095,51.109C48.6324,53.2424,48.4378,54.9613,50.3289,56.5526C55.1537,60.6057,60.7791,53.1085,56.1009,49.5178L56.1041,49.5178Z" fill-rule="evenodd" fill="#000000" fill-opacity="1" style="mix-blend-mode:passthrough"/></g></svg>