<svg xmlns="http://www.w3.org/2000/svg" xmlns:xlink="http://www.w3.org/1999/xlink" fill="none" version="1.1" width="60" height="56.988746643066406" viewBox="0 0 60 56.988746643066406"><defs><clipPath id="master_svg0_190_11287"><rect x="0" y="0" width="60" height="56.988746643066406" rx="0"/></clipPath></defs><g clip-path="url(#master_svg0_190_11287)"><g><path d="M42.6144,10.71717548828125L42.6144,7.08238548828125C42.6144,7.07035548828125,42.6935,6.87453548828125,42.7089,6.84361548828125C42.7982,6.67011548828125,42.9511,6.57563548828125,43.1229,6.49318548828125L49.3361,6.46741548828125C49.7638,6.52925548828125,49.9837,6.90544548828125,49.9854,7.31256548828125L49.9682,17.18977548828125L56.4872,22.94767548828125C58.3235,25.22717548828125,55.3826,28.41707548828125,52.9537,26.64607548828125C52.7785,26.51897548828125,52.6102,26.32997548828125,52.4384,26.19777548828125C52.404,26.17197548828125,52.3954,26.13417548828125,52.3387,26.14787548828125L52.3387,40.18727548828125C53.1186,39.89867548828125,53.871,39.51387548828125,54.6526,39.23217548828125C59.3472,37.54707548828125,62.0922,43.44417548828125,58.0143,45.94517548828125C53.5927,48.16117548828125,49.166,50.36507548828125,44.6277,52.33877548828125L32.112,54.85697548828125C31.5778,54.87937548828125,31.0487,54.81917548828125,30.5334,54.67317548828125L12.5122,49.51307548828125L12.5122,53.34707548828125C12.5122,53.44157548828125,12.3714,53.72157548828125,12.2975,53.79537548828125C12.2237,53.86927548828125,11.9574,54.02727548828125,11.8646,54.02727548828125L8.32948,54.02727548828125C8.28825,54.71267548828125,8.38101,55.45477548828125,8.32948,56.13677548828125C8.30199,56.51467548828125,8.18518,56.80667548828125,7.80384,56.93897548828125C5.43847,57.03687548828125,3.05077,56.95267548828125,0.676808,56.98187548828125C0.213004,56.89257548828125,0.0309199,56.59367548828125,0,56.13677548828125L0,28.65417548828125C0.00687108,28.21267548828125,0.261101,27.85537548828125,0.714592,27.80897548828125L7.675,27.81587548828125C8.101,27.91547548828125,8.29683,28.19037548828125,8.33119,28.61977548828125C8.38444,29.30857548828125,8.28652,30.06787548828125,8.33119,30.76187548828125L11.7994,30.76187548828125C11.82,30.76187548828125,12.021,30.82027548828125,12.0587,30.83567548828125C12.2529,30.91127548828125,12.514,31.23597548828125,12.514,31.44377548828125L12.514,35.64197548828125C13.1083,35.36207548828125,13.682,35.03907548828125,14.2833,34.77287548828125C15.6781,34.15617548828125,17.1502,33.69577548828125,18.6533,33.41747548828125L18.6533,26.14967548828125C18.5949,26.13417548828125,18.5863,26.17367548828125,18.5536,26.19947548828125C18.4179,26.30077548828125,18.2977,26.44677548828125,18.1706,26.54647548828125C16.3961,27.94467548828125,14.2541,26.76977548828125,13.9071,24.70497548828125L11.5005,22.30007548828125C10.9456,21.64217548828125,11.0315,21.07537548828125,11.4386,20.37787548828125C11.7959,19.76297548828125,12.2597,19.18407548828125,12.6084,18.55877548828125L12.1996,17.51957548828125C11.4438,17.29797548828125,10.6433,17.22237548828125,9.88577,17.01277548828125C9.27252,16.84277548828125,8.87228,16.45107548828125,8.7675,15.80697548828125C8.84136,14.54267548828125,8.65584,13.14267548828125,8.76235,11.89387548828125C8.80701,11.37507548828125,9.14026,10.92677548828125,9.6178,10.72407548828125L12.1807,10.13317548828125L12.6084,9.12995548828125C12.617,9.06468548828125,12.5294,8.95474548828125,12.4933,8.89118548828125C11.9162,7.87942548828125,10.4853,6.58078548828125,11.4507,5.41957548828125C12.258,4.44731548828125,13.4347,3.53174548828125,14.309,2.60243548828125C15.4668,1.86207548828125,16.695,3.28782548828125,17.681,3.80486548828125C17.7394,3.83578548828125,17.7927,3.88216548828125,17.8648,3.87186548828125L18.868,3.44585548828125L19.4245,0.94821848828125C19.6255,0.42429848828125,20.0979,0.07215528828125,20.6596,0.02749318828125C21.8895,0.10307548828125,23.2294,-0.06870191171875,24.4456,0.02749318828125C26.0397,0.15460848828125,25.8335,2.20906548828125,26.2029,3.34794548828125C26.2183,3.39604548828125,26.2235,3.44757548828125,26.2733,3.47677548828125L27.2902,3.87186548828125L29.5147,2.47703548828125C30.0009,2.29323548828125,30.5265,2.37740548828125,30.9319,2.69862548828125C31.7392,3.63481548828125,32.8816,4.47823548828125,33.6546,5.41957548828125C33.7748,5.56558548828125,33.8332,5.71503548828125,33.9363,5.86791548828125C34.5444,5.48656548828125,35.1232,4.38375548828125,35.9426,4.89221548828125C37.8923,6.58078548828125,39.8076,8.30886548828125,41.7521,10.00087548828125C41.9926,10.21047548828125,42.2709,10.47497548828125,42.5165,10.66397548828125C42.5492,10.68967548828125,42.5578,10.72747548828125,42.6162,10.71377548828125L42.6144,10.71717548828125ZM24.2944,1.52711548828125L20.8125,1.52711548828125L20.2731,4.02303548828125C20.146,4.35284548828125,19.9193,4.62081548828125,19.6066,4.78400548828125C19.3421,4.92142548828125,18.2273,5.38522548828125,17.9747,5.40755548828125C17.6724,5.43503548828125,17.3667,5.36461548828125,17.1073,5.21516548828125L15.0889,3.92340548828125L12.6531,6.35919548828125L13.9826,8.43941548828125C14.1355,8.77438548828125,14.1819,9.09560548828125,14.0943,9.45805548828125C14.0273,9.72946548828125,13.5103,10.93357548828125,13.3454,11.13287548828125C13.1375,11.38197548828125,12.8901,11.51077548828125,12.5827,11.59837548828125C11.8406,11.81137548828125,11.0178,11.88187548828125,10.274,12.11027548828125L10.2568,15.54407548828125C10.9903,15.76057548828125,11.7873,15.84297548828125,12.5225,16.03887548828125C12.9571,16.15387548828125,13.2595,16.34117548828125,13.4845,16.73627548828125C13.6425,17.01627548828125,14.1132,18.14997548828125,14.139,18.43857548828125C14.1647,18.72717548828125,14.0874,19.01747548828125,13.95,19.26997548828125L12.6548,21.28317548828125L14.3915,23.06447548828125L18.7546,19.19777548828125C16.0611,17.25677548828125,15.1731,13.60987548828125,16.7912,10.66217548828125C18.6739,7.23182548828125,23.1573,6.19257548828125,26.3661,8.46690548828125C27.2473,9.09045548828125,27.8021,9.78271548828125,28.3398,10.70857548828125C28.3552,10.73607548828125,28.3295,10.76357548828125,28.3965,10.74977548828125L31.2514,8.22813548828125L32.4573,6.37981548828125L30.0232,3.92168548828125L28.0254,5.20142548828125C27.7523,5.36117548828125,27.4551,5.43675548828125,27.1356,5.40755548828125C26.8814,5.38350548828125,25.7648,4.92314548828125,25.5037,4.78400548828125C25.1894,4.61737548828125,24.9644,4.35627548828125,24.8372,4.02303548828125L24.2979,1.52710548828125L24.2944,1.52711548828125ZM35.496,6.50520548828125L15.831,23.74477548828125C14.8381,24.53147548828125,15.9272,26.07057548828125,17.0008,25.54497548828125L34.814,9.93903548828125C35.2744,9.50958548828125,35.6162,9.47523548828125,36.1092,9.87203548828125L53.816,25.41957548828125C54.8879,26.27507548828125,56.2535,24.56927548828125,55.1439,23.72757548828125L35.496,6.50520548828125ZM48.4566,7.96359548828125L44.1089,7.96359548828125L44.1089,12.06217548828125L48.4566,15.86187548828125L48.4566,7.96359548828125ZM22.0648,8.76923548828125C20.5188,8.89806548828125,19.0501,9.84627548828125,18.241,11.15177548828125C16.7568,13.54287548828125,17.5213,16.69327548828125,19.9038,18.14657548828125L27.1786,11.78907548828125C26.354,9.76897548828125,24.236,8.58714548828125,22.0648,8.76923548828125ZM20.146,24.80637548828125L20.146,33.15297548828125C21.4292,33.02927548828125,22.69,32.82657548828125,23.968,33.09627548828125C25.8731,33.49827548828125,27.1872,34.75567548828125,28.6782,35.88767548828125L29.4048,36.40467548828125L29.4048,27.69217548828125C30.1829,20.88467548828125,40.7678,20.85377548828125,41.5872,27.65957548828125L41.5872,43.37547548828125L43.944,43.32737548828125L50.8408,40.81597548828125L50.8271,24.79087548828125L35.5115,11.36307548828125L20.146,24.80637548828125ZM40.0928,41.44977548828125L40.0928,27.65957548828125C40.0928,27.15797548828125,39.6496,26.25617548828125,39.3421,25.85417548828125C36.9991,22.77597548828125,31.394,23.75337548828125,30.8993,27.79177548828125L30.8993,37.44737548828125L38.2565,39.71827548828125C38.8491,39.97937548828125,39.3455,40.37967548828125,39.7406,40.88807548828125L40.0928,41.44977548828125ZM1.50992,29.30347548828125L1.50992,55.48917548828125L6.80581,55.48917548828125L6.80581,29.30347548828125L1.50992,29.30347548828125ZM8.31057,32.25977548828125L8.31057,52.53457548828125L11.0195,52.53457548828125L11.0195,32.25977548828125L8.31057,32.25977548828125ZM25.0039,42.19187548828125C25.1945,42.02187548828125,25.4505,41.98227548828125,25.6978,42.02357548828125L36.573,44.82177548828125C39.1394,45.10517548828125,39.8901,41.87067548828125,37.3306,40.97737548828125C34.9257,40.13747548828125,32.3731,39.55167548828125,29.9579,38.72547548828125C27.6097,37.26707548828125,25.447,34.38117548828125,22.4547,34.44817548828125C19.4623,34.51517548828125,15.7124,35.50627548828125,13.0224,37.09697548828125C12.9211,37.15707548828125,12.5277,37.37357548828125,12.514,37.45087548828125L12.5174,47.95157548828125L31.0006,53.24747548828125C31.3407,53.34197548828125,31.6911,53.38487548828125,32.045,53.36257548828125L44.2068,50.88897548828125C48.6558,48.94097548828125,53.0018,46.78347548828125,57.3392,44.60707548828125C59.7114,43.06797548828125,58.1328,39.67187548828125,55.3362,40.58057548828125C53.8538,41.06157548828125,52.2958,41.86727548828125,50.8202,42.43757548828125C48.594,43.29817548828125,46.3111,44.05227548828125,44.0591,44.83557548828125L39.811,44.93517548828125C39.6032,45.08457548828125,39.4469,45.32337548828125,39.2476,45.50027548828125C38.3578,46.28357548828125,37.1124,46.54467548828125,35.9701,46.22007548828125L25.2581,43.45787548828125C24.7325,43.26887548828125,24.583,42.56637548828125,25.0039,42.19187548828125Z" fill="#000000" fill-opacity="1" style="mix-blend-mode:passthrough"/></g></g></svg>