<svg xmlns="http://www.w3.org/2000/svg" xmlns:xlink="http://www.w3.org/1999/xlink" fill="none" version="1.1" width="60" height="60" viewBox="0 0 60 60"><defs><clipPath id="master_svg0_190_11345"><rect x="0" y="0" width="60" height="60" rx="0"/></clipPath></defs><g clip-path="url(#master_svg0_190_11345)"><g><g><g><path d="M34.01203918457031,27.672311782836914L38.86263918457031,27.672311782836914L38.86263918457031,30.679541782836914L34.01203918457031,27.672311782836914Z" fill="#000000" fill-opacity="1" style="mix-blend-mode:passthrough"/></g><g><path d="M27.32527786621094,23.522892007446288L19.814437866210938,18.86029200744629C20.031304866210938,17.15422200744629,20.53732986621094,15.628922007446288,21.33973786621094,14.29157200744629C22.431307866210936,12.455432007446289,23.963837866210937,11.05302200744629,25.937327866210936,10.091572007446288C27.903597866210937,9.122900007446288,30.17343786621094,8.645792007446289,32.73253786621094,8.645792007446289C36.86023786621094,8.645792007446289,40.01203786621094,9.78073200744629,42.18073786621093,12.06507200744629C44.35663786621094,14.34940200744629,45.49873786621094,17.26988200744629,45.60723786621094,20.82649200744629L38.421637866210936,20.82649200744629C38.38553786621094,19.04819200744629,37.915637866210936,17.64579200744629,37.02643786621094,16.626512007446287C36.13733786621094,15.607242007446288,34.74213786621094,15.09398200744629,32.848137866210934,15.09398200744629C31.09873786621094,15.09398200744629,29.718047866210938,15.614462007446289,28.69154786621094,16.655432007446286C27.672267866210937,17.69639200744629,27.159017866210938,19.286792007446287,27.159017866210938,21.44099200744629C27.159017866210938,22.13499200744629,27.216847866210937,22.82889200744629,27.32527786621094,23.522892007446288Z" fill="#000000" fill-opacity="1" style="mix-blend-mode:passthrough"/></g><g><path d="M45.88913161621094,43.359011782836916L45.88913161621094,49.59041178283691L18.86023161621094,49.59041178283691L17.631311616210937,45.585611782836914C19.301191616210936,43.95181178283691,20.530111616210938,42.289211782836915,21.310831616210937,40.60481178283691C22.091551616210936,38.913311782836914,22.481921616210936,36.80966178283691,22.481921616210936,34.286771782836915C22.481921616210936,34.03376178283691,22.445771616210937,33.60725178283691,22.36625161621094,33.00725178283692L16.185531616210938,33.00725178283692L16.185531616210938,27.672311782836914L19.59035161621094,27.672311782836914L29.884331616210936,34.062671782836915C29.884331616210936,34.17111178283692,29.884331616210936,34.265081782836916,29.884331616210936,34.34460178283692C29.884331616210936,35.942191782836915,29.58073161621094,37.52532178283691,28.966231616210937,39.10121178283691C28.351831616210937,40.67711178283692,27.41203161621094,42.094011782836915,26.154201616210937,43.359011782836916L45.881931616210935,43.359011782836916L45.88913161621094,43.359011782836916Z" fill="#000000" fill-opacity="1" style="mix-blend-mode:passthrough"/></g></g><g><path d="M30,60C13.4602,60,0,46.5398,0,30C0,13.4602,13.4602,0,30,0C46.5398,0,60,13.4602,60,30C60,46.5398,46.5398,60,30,60ZM30,3.61446C15.4482,3.61446,3.61446,15.4482,3.61446,30C3.61446,44.5518,15.4482,56.3855,30,56.3855C44.5518,56.3855,56.3855,44.5518,56.3855,30C56.3855,15.4482,44.5518,3.61446,30,3.61446Z" fill="#000000" fill-opacity="1" style="mix-blend-mode:passthrough"/></g><g><path d="M45.889153046875,43.3590087890625L45.889153046875,43.9879237890625L44.869873046875,43.3590087890625L45.889153046875,43.3590087890625Z" fill="#000000" fill-opacity="1" style="mix-blend-mode:passthrough"/></g></g><g transform="matrix(0.5272524356842041,-0.8497086763381958,0.8497086763381958,0.5272524356842041,-11.47230453816519,13.229416112735635)"><rect x="6.15301513671875" y="16.924774169921875" width="3.50602388381958" height="56.38554000854492" rx="0" fill="#000000" fill-opacity="1" style="mix-blend-mode:passthrough"/></g></g></svg>