<svg xmlns="http://www.w3.org/2000/svg" xmlns:xlink="http://www.w3.org/1999/xlink" fill="none" version="1.1" width="60" height="69.88069152832031" viewBox="0 0 60 69.88069152832031"><defs><clipPath id="master_svg0_190_11290"><rect x="0" y="0" width="60" height="69.88069152832031" rx="0"/></clipPath></defs><g clip-path="url(#master_svg0_190_11290)"><g><path d="M14.724737890625,45.26798130859375L11.214337890625,52.49224130859375L9.815247890625,52.49224130859375L9.815247890625,50.88964130859375C9.815247890625,50.11564130859375,8.666917890625,49.069041308593754,7.871087890625,49.08364130859375C5.981437890625,49.24354130859375,3.728397890625,48.86554130859375,1.882357890625,49.09084130859375C0.857581890625,49.21804130859375,0.101721890625,50.079341308593754,-0.003662109375,51.09314130859375L-0.003662109375,67.79844130859375C0.101721890625,68.88494130859375,0.915724890625,69.70984130859375,2.005907890625,69.80794130859375C3.732027890625,69.96784130859375,5.948737890625,69.80434130859375,7.736627890625,69.80794130859375C15.931137890625,69.82974130859375,24.183837890625,69.78984130859375,32.403837890625,69.79704130859375C32.898037890625,69.73164130859375,33.228737890625,69.52454130859375,33.606637890625,69.22654130859375C35.281937890625,67.90384130859375,36.902637890625,66.21764130859376,38.512437890625,64.79314130859375C43.182137890625,60.66134130859375,47.968037890625,56.613141308593754,52.557637890625,52.38684130859375C54.458237890625,50.63534130859375,55.882737890625,48.95274130859375,54.683537890625,46.16919130859375C54.545437890625,45.84940130859375,54.309237890625,45.58776130859375,54.192937890625,45.26070130859375L57.227237890625,45.26070130859375C57.630637890625,45.26070130859375,58.542737890625,44.71925130859375,58.862537890625,44.43943130859375C61.097437890625,42.49891130859375,59.814637890625,38.98852130859375,56.958337890625,38.71234130859375L12.653337890625,38.72324270859375C9.847957890625,39.17385030859375,8.757767890625,42.70968130859375,11.043537890625,44.544821308593754C11.326937890625,44.77375130859375,12.242737890625,45.26070130859375,12.577037890625,45.26070130859375L14.724737890625,45.26070130859375L14.724737890625,45.26798130859375ZM38.719637890625,45.26798130859375L46.558037890625,45.26798130859375L35.685237890625,55.15234130859375L38.825037890625,49.770441308593746C39.529937890625,48.32049130859375,39.519037890625,46.67795130859375,38.719637890625,45.26798130859375ZM27.407137890625,55.83184130859375C27.385337890625,55.75554130859375,27.414437890625,55.70104130859375,27.439837890625,55.63194130859375C27.577937890625,55.29404130859375,27.944937890625,54.71624130859375,28.141237890625,54.35644130859375C29.500337890625,51.84904130859375,30.946637890625,48.98184130859375,32.436537890625,46.58710130859375C32.759937890625,46.06744130859375,33.319537890625,45.34792130859375,33.980937890625,45.26798130859375C34.780437890625,45.16986130859375,35.630737890625,45.19166130859375,36.266737890625,45.71132130859375C37.077037890625,46.37269130859375,37.360537890625,47.50648130859375,37.000737890625,48.49128130859375L31.488037890625,57.94314130859375L27.407137890625,55.83184130859375ZM23.518837890625,45.26798130859375L30.677737890625,45.26798130859375L25.397537890625,54.67624130859375L23.464337890625,53.61514130859375L23.522437890625,45.27161130859375L23.518837890625,45.26798130859375ZM12.682437890625,54.67624130859375L17.213937890625,45.26798130859375L21.269437890625,45.26798130859375L21.334837890625,54.966941308593746L32.483737890625,61.013841308593754L48.920037890625,46.09652130859375C51.343937890625,44.37403130859375,54.211137890625,47.44471130859375,52.216037890625,49.734041308593746L32.138537890625,67.62764130859375L9.818877890625,67.62764130859375L9.818877890625,54.67624130859375L12.682437890625,54.67624130859375Z" fill="#000000" fill-opacity="1" style="mix-blend-mode:passthrough"/></g><g><path d="M30.6704556640625,18.81292376953125L23.2208756640625,18.82745376953125C21.3530271640625,19.074563769531252,20.5789976640625,21.33121376953125,21.9853316640625,22.63581376953125L27.8759456640625,26.77121376953125L25.6519756640625,33.52311376953125C25.4702756640625,35.21651376953125,27.0982856640625,36.47751376953125,28.7008556640625,35.82341376953125L34.9331056640625,31.62981376953125L41.012605664062505,35.78341376953125C42.3717056640625,36.43391376953125,44.010605664062496,35.558113769531246,44.1669056640625,34.04641376953125C44.2432056640625,33.30141376953125,43.552805664062504,31.63711376953125,43.2911056640625,30.84851376953125C42.898705664062504,29.67111376953125,42.3754056640625,28.44281376953125,42.0301056640625,27.26911376953125C41.8521056640625,26.65861376953125,41.9211056640625,26.74581376953125,42.382605664062496,26.396913769531253C44.047005664062496,25.13601376953125,46.129205664062496,24.042113769531248,47.7136056640625,22.73031376953125C49.2980056640625,21.41841376953125,48.5022056640625,19.03095376953125,46.5253056640625,18.81655376953125L39.1375056640625,18.80928376953125L36.8954056640625,12.15917376953125C36.1032056640625,10.52026676953125,33.8138056640625,10.48029376953125,32.9707056640625,12.07559376953125L30.674085664062503,18.80928376953125L30.6704556640625,18.81292376953125Z" fill="#000000" fill-opacity="1" style="mix-blend-mode:passthrough"/></g><g><path d="M51.0714265625,6.7009997909375C50.882456562499996,6.6828303109375,50.740736562500004,6.7119018109375,50.5663065625,6.7773122109375C48.6330465625,8.4561887109375,46.9105665625,10.396718710937499,45.0572505625,12.1737187109375C44.3558995625,13.1766787109375,45.5296645625,14.3722487109375,46.5544365625,13.739948710937501L51.8054765625,8.4925287109375C52.3869065625,7.8275187109375,51.9035965625,6.7845809109375,51.0714265625,6.7009997909375Z" fill="#000000" fill-opacity="1" style="mix-blend-mode:passthrough"/></g><g><path d="M18.6965996484375,6.69731961875C17.8825956484375,6.60647106875,17.2139516484375,7.50041996875,17.5628100484375,8.24537796875L22.9773796484375,13.73626796875C24.002149648437502,14.36856796875,25.183189648437498,13.183907968749999,24.4745696484375,12.17003796875L19.2271596484375,6.91898896875C19.1035996484375,6.83177396875,18.8383296484375,6.71185436875,18.6929696484375,6.69731822875L18.6965996484375,6.69731961875Z" fill="#000000" fill-opacity="1" style="mix-blend-mode:passthrough"/></g><g><path d="M34.9876012890625,0.0217832078125C34.2862522890625,-0.1126724921875,33.7338942890625,0.3670075078125,33.6721155890625,1.0574555078125C33.4976852890625,3.0270555078125,33.8029372890625,5.2582955078125,33.6793821890625,7.2569555078125C33.9410262890625,8.5470055078125,35.7361912890625,8.4852255078125,35.8561112890625,7.1297755078125C36.0305412890625,5.1601755078125,35.7252912890625,2.9289355078125,35.8488412890625,0.9302685078125C35.7943312890625,0.4941955078125,35.4091412890625,0.1017295078125,34.9876012890625,0.0217832078125Z" fill="#000000" fill-opacity="1" style="mix-blend-mode:passthrough"/></g></g></svg>