<svg xmlns="http://www.w3.org/2000/svg" xmlns:xlink="http://www.w3.org/1999/xlink" fill="none" version="1.1" width="60" height="60.17954635620117" viewBox="0 0 60 60.17954635620117"><defs><clipPath id="master_svg0_190_11536"><rect x="0" y="0" width="60" height="60.17954635620117" rx="0"/></clipPath></defs><g clip-path="url(#master_svg0_190_11536)"><g><path d="M53.70150869140625,12.68682861328125L53.78080869140625,13.92064861328125L53.76200869140625,59.45512861328125C53.55950869140625,59.67642861328125,53.29440869140625,60.07302861328125,52.99370869140625,60.11272861328125C49.83090869140625,59.93942861328125,46.44468869140625,60.32982861328125,43.306898691406246,60.11272861328125C42.90189169140625,60.08352861328125,42.12527379140625,60.03542861328125,42.06890869140625,59.55112861328125L42.08769709140625,24.29642861328125L53.70150869140625,12.68891754328125L53.70150869140625,12.68682861328125Z" fill="#000000" fill-opacity="1" style="mix-blend-mode:passthrough"/></g><g><path d="M10.97909619140625,35.54281142578125C9.22543619140625,37.27141142578125,7.50101619140625,39.05221142578125,5.72021619140625,40.75151142578125C4.96656619140625,41.47181142578125,4.20247619140625,42.19831142578125,3.37783619140625,42.83501142578125C3.24840619140625,42.85801142578125,2.69725619140625,42.43211142578125,2.56781619140625,42.32361142578125C1.94568619140625,41.80371142578125,0.58869519140625,40.49481142578125,0.16907119140625,39.84551142578125C0.05842389140625,39.67431142578125,-0.08562620859375,39.48641142578125,0.06051159140625,39.30061142578125C1.87261619140625,37.21501142578125,3.89558619140625,35.33191142578125,5.83086619140625,33.36321142578125C12.95199619140625,26.11901142578125,20.08769619140625,18.67851142578125,27.47389619140625,11.71191142578125C27.78699619140625,11.41541142578125,29.18789619140625,10.07511142578125,29.46339619140625,10.01881142578125C29.80369619140625,9.94988142578125,30.15659619140625,10.47391142578125,30.44049619140625,10.62421142578125L38.19409619140625,18.23591142578125L50.24629619140625,6.19831142578125C49.41329619140625,5.32984142578125,48.48219619140625,4.54069142578125,47.78289619140625,3.55531142578125C47.74319619140625,3.45510142578125,47.78289619140625,3.41543142578125,47.84549619140625,3.34863142578125C47.97489619140625,3.21084142578125,48.95819619140625,2.92274142578125,49.21289619140625,2.84132142578125C52.60539619140625,1.75572142578125,56.18989619140625,1.05009142578125,59.60749619140625,0.02712502578125C59.71809619140625,0.00207279578125,59.89349619140625,-0.02506707421875,59.96659619140625,0.07931702578125C60.12729619140625,0.31104942578125,59.56989619140625,2.39873142578125,59.46969619140625,2.81627142578125C58.85799619140625,5.33401142578125,58.14609619140625,7.96241142578125,57.42789619140625,10.45301142578125C57.33819619140625,10.76621142578125,56.96239619140625,12.25681142578125,56.77449619140625,12.35491142578125C56.69729619140625,12.39451142578125,56.64089619140625,12.37581142578125,56.57409619140625,12.32981142578125C55.63459619140625,11.63461142578125,54.82459619140625,10.77031142578125,53.99789619140625,9.94362142578125L53.84969619140625,9.94362142578125L38.20039619140625,25.37161142578125L37.79749619140625,25.17331142578125C34.96869619140625,22.53021142578125,32.23589619140625,19.78081142578125,29.49889619140625,17.03961142578125C23.30479619140625,23.18791142578125,17.18789619140625,29.41541142578125,10.97489619140625,35.54281142578125L10.97909619140625,35.54281142578125Z" fill="#000000" fill-opacity="1" style="mix-blend-mode:passthrough"/></g><g><path d="M29.4446777734375,19.5970458984375L29.6576277734375,19.6596769984375L35.843467773437496,25.9310758984375C35.8496677734375,37.0667458984375,35.9603677734375,48.1899458984375,35.999967773437504,59.3235458984375C35.9895677734375,59.5448458984375,35.4592677734375,60.0709458984375,35.2818677734375,60.1064458984375L24.9248487734375,60.1127458984375C24.7035547734375,60.1022458984375,24.1774579734375,59.5720458984375,24.1419677734375,59.3945458984375L24.1419677734375,24.9561258984375L29.4446777734375,19.5970458984375Z" fill="#000000" fill-opacity="1" style="mix-blend-mode:passthrough"/></g><g><path d="M17.98544423828125,31.06892321609375C18.03554423828125,38.81005349609375,17.92074423828125,46.55533349609375,17.983344238281248,54.294433496093745C17.983344238281248,54.50943349609375,18.06264423828125,54.69313349609375,18.06474423828125,54.887333496093746C18.07934423828125,56.45723349609375,18.060544238281253,58.03133349609375,18.04594423828125,59.601233496093755C17.801744238281252,60.05433349609375,17.35284423828125,60.041733496093755,16.90194423828125,60.106533496093746L7.01046423828125,60.08773349609375C6.78916923828125,59.88523349609375,6.39251033828125,59.620033496093754,6.35284423828125,59.31943349609375L6.37163343828125,42.67433349609375L17.98544423828125,31.06683349609375L17.98544423828125,31.06892321609375Z" fill="#000000" fill-opacity="1" style="mix-blend-mode:passthrough"/></g></g></svg>