<svg xmlns="http://www.w3.org/2000/svg" xmlns:xlink="http://www.w3.org/1999/xlink" fill="none" version="1.1" width="60" height="58.082759857177734" viewBox="0 0 60 58.082759857177734"><defs><clipPath id="master_svg0_190_11297"><rect x="0" y="0" width="60" height="58.082759857177734" rx="0"/></clipPath></defs><g clip-path="url(#master_svg0_190_11297)"><g><path d="M36.5596,30.459C36.8001,30.7537,37.2032,30.9264,37.4911,31.2008C38.6326,32.2712,39.5811,33.7041,40.0621,35.1979C41.1698,38.6394,39.9164,41.9624,40.6854,45.4818C41.8269,50.7085,46.6945,52.5749,51.5384,52.8764C52.7375,47.7243,60.4302,48.9911,59.9831,54.1941C59.5969,58.6722,53.3405,59.5834,51.7247,55.3593C44.381,54.7835,38.4904,51.5418,38.0398,43.5409C37.8942,40.9394,38.636,38.1584,37.735,35.6653C36.2039,31.4447,31.0551,30.1474,27.0174,30.8316L29.06,32.0714C29.3886,32.3424,29.5715,32.532,29.4936,32.9927L25.754,39.4253C24.7208,41.0241,22.6647,38.4633,21.3775,38.155C21.259,38.155,19.7922,38.9748,19.7042,39.0798C19.362,39.493,19.7177,42.1521,19.5754,42.9176C19.5314,43.1446,19.3824,43.2868,19.2028,43.4122L10.3111,43.3919L10.1485,43.2699L9.97233,39.1374C9.58956,38.9273,8.50561,38.111,8.14316,38.1652C7.49279,38.2634,5.93123,39.6522,5.16908,39.9063C4.45096,40.1468,4.27821,39.974,3.86156,39.4219C2.49646,37.6198,1.45316,34.998,0.145649,33.0943C0.0677402,32.759,0.111776,32.3796,0.372601,32.1391L3.59735,30.2524L3.53299,27.9828C3.3704,27.6475,0.823118,26.5297,0.335341,26.1232C0.16598,25.9775,-0.00338734,25.6862,0,25.4525L3.9598,18.4034C4.20708,18.1392,4.63727,18.1392,4.96246,18.2442L8.21092,20.0294L9.96217,18.9352C10.2094,18.2476,9.78603,14.9924,10.2433,14.7078C10.7243,14.4064,11.2257,14.6062,11.7033,14.5994C13.8678,14.5757,16.3947,14.4233,18.5051,14.5148C18.9352,14.5351,19.484,14.6638,19.5755,15.1516C19.7008,15.8291,19.423,18.7489,19.5992,19.0335L21.4791,20.0192C22.7358,19.5111,23.8638,18.3662,25.212,18.1866C25.649,18.2578,26.2858,19.5416,26.5398,19.965C27.3934,21.3775,28.7551,23.4743,29.3886,24.9207C29.5105,25.1984,29.6934,25.5067,29.4767,25.7912L26.7634,27.6068C27.2579,27.6746,27.9591,27.8643,28.4367,27.8677C32.0849,27.8846,36.2852,26.5364,37.6401,22.8104C38.6021,20.1648,37.8332,18.0308,37.9111,15.3955C38.1482,7.29295,43.8966,3.50929,51.4673,3.052C51.8636,2.62858,52.0025,2.06289,52.3649,1.59544C54.2043,-0.779089,58.015,-0.43358,59.4208,2.20177C62.029,7.09309,55.0172,11.3611,51.8975,6.25642C51.5655,5.71445,51.8467,5.3791,50.9964,5.42652C47.1315,5.63992,42.5044,7.65878,41.0444,11.4695C38.592,17.8716,43.253,21.6079,36.8611,27.7389C36.7357,27.8575,36.3597,27.8507,36.6172,28.1082L51.3657,28.1082C51.7179,28.0404,51.8229,27.3562,52.0228,27.031C54.5464,22.912,61.0568,25.4559,59.8171,30.3641C58.7805,34.4662,52.7274,34.5746,51.6739,30.4624L36.5528,30.4624L36.5596,30.459ZM20.988,29.0498C20.988,25.6286,18.2137,22.8544,14.7925,22.8544C11.3713,22.8544,8.59707,25.6286,8.59707,29.0498C8.59707,32.4711,11.3713,35.2453,14.7925,35.2453C18.2137,35.2453,20.988,32.4711,20.988,29.0498Z" fill="#000000" fill-opacity="1" style="mix-blend-mode:passthrough"/></g></g></svg>