<svg xmlns="http://www.w3.org/2000/svg" xmlns:xlink="http://www.w3.org/1999/xlink" fill="none" version="1.1" width="24" height="24" viewBox="0 0 24 24"><defs><clipPath id="master_svg0_181_07633"><rect x="0" y="0" width="24" height="24" rx="0"/></clipPath></defs><g clip-path="url(#master_svg0_181_07633)"><g><path d="M15.402,21L15.402,14.034L17.735,14.034L18.084,11.326L15.402,11.326L15.402,9.597999999999999C15.402,8.814,15.62,8.279,16.744,8.279L18.178,8.279L18.178,5.857C17.483800000000002,5.78334,16.786099999999998,5.74763,16.088,5.75C14.021,5.75,12.606,7.012,12.606,9.33L12.606,11.326L10.268,11.326L10.268,14.034L12.606,14.034L12.606,21L4,21C3.447715,21,3,20.5523,3,20L3,4C3,3.447715,3.447715,3,4,3L20,3C20.5523,3,21,3.447715,21,4L21,20C21,20.5523,20.5523,21,20,21L15.402,21Z" fill="#FF5C1D" fill-opacity="1" style="mix-blend-mode:passthrough"/></g></g></svg>